<?xml version="1.0" encoding="utf-8"?>
<?xml-stylesheet type="text/xsl" href="rss1.xsl"?>
<rss version="2.0" xmlns:atom="http://www.w3.org/2005/Atom" xmlns:content="http://purl.org/rss/1.0/modules/content/" xmlns:dc="http://purl.org/dc/elements/1.1/" xmlns:media="http://search.yahoo.com/mrss/">
<channel>
 <title>Getty</title>
 <link>http://www.gettyimg.com/</link>
 <atom:link href="http://www.gettyimg.com/" rel="self" type="application/rss+xml" />

 
                <item>
                <title><![CDATA[【Music Videos】Ariana Grande - we can't be friends (wait for your love) [4K AM WEB-DL HEVC with DDP 5.1] - By RK✪]]></title>
                <link><![CDATA[https://sharemania.us/threads/ariana-grande-we-cant-be-friends-wait-for-your-love-4k-am-web-dl-hevc-with-ddp-5-1-by-rk%E2%9C%AA.239654/]]></link>
                <description><![CDATA[<article>
<blockquote class="messageText SelectQuoteContainer ugc baseHtml">
<b>Ariana Grande - we can't be friends (wait for your love) [4K AM WEB-DL HEVC with DDP 5.1] - By RK✪ </b><br>
<br>
<b><i><span style="color: #0000ff">Hear The Difference!!</span></i></b><br>
<br>
<i><b>Audio Source:</b> Dolby Atmos Version of the Track!</i><br>
<br>
<div class="bbCodeBlock bbCodeCode">
<div class="type">Code:</div>
<pre>Media Info:
Format                      : Matroska
Format version              : Version 4
File size                   : 451 MiB
Duration                    : 4 min 43 s
Overall bit rate            : 13.4 Mb/s
Frame rate                  : 23.976 FPS
Movie name                  : Ariana Grande - we can't be friends (wait for your love) - By RK✪
Encoded date                : 2024-03-10 10:20:39 UTC
Writing application         : mkvmerge v81.0 ('Milliontown') 64-bit
Writing library             : libebml v1.4.4 + libmatroska v1.7.1
Video
ID                          : 1
Format                      : HEVC
Format/Info                 : High Efficiency Video Coding
Format profile              : Main 10@L5@High
Codec ID                    : V_MPEGH/ISO/HEVC
Duration                    : 4 min 43 s
Bit rate                    : 12.1 Mb/s
Width                       : 3 840 pixels
Height                      : 2 160 pixels
Display aspect ratio        : 16:9
Frame rate mode             : Constant
Frame rate                  : 23.976 (23976/1000) FPS
Color space                 : YUV
Chroma subsampling          : 4:2:0
Bit depth                   : 10 bits
Bits/(Pixel*Frame)          : 0.061
Stream size                 : 407 MiB (90%)
Title                       : - By RK✪
Language                    : English
Default                     : Yes
Forced                      : No
Color range                 : Limited
Color primaries             : BT.709
Transfer characteristics    : BT.709
Matrix coefficients         : BT.709
Audio #1
ID                          : 2
Format                      : E-AC-3
Format/Info                 : Enhanced AC-3
Commercial name             : Dolby Digital Plus
Codec ID                    : A_EAC3
Duration                    : 4 min 43 s
Bit rate mode               : Constant
Bit rate                    : 1 024 kb/s
Channel(s)                  : 6 channels
Channel layout              : L R C LFE Ls Rs
Sampling rate               : 48.0 kHz
Frame rate                  : 31.250 FPS (1536 SPF)
Compression mode            : Lossy
Stream size                 : 34.6 MiB (8%)
Title                       : - By RK✪
Language                    : English
Service kind                : Complete Main
Default                     : Yes
Forced                      : No
Audio #2
ID                          : 3
Format                      : AAC LC
Format/Info                 : Advanced Audio Codec Low Complexity
Codec ID                    : A_AAC-2
Duration                    : 4 min 43 s
Bit rate                    : 271 kb/s
Channel(s)                  : 2 channels
Channel layout              : L R
Sampling rate               : 48.0 kHz
Frame rate                  : 46.875 FPS (1024 SPF)
Compression mode            : Lossy
Stream size                 : 9.14 MiB (2%)
Title                       : - By RK✪
Language                    : English
Default                     : No
Forced                      : No
Text
ID                          : 4
Format                      : UTF-8
Codec ID                    : S_TEXT/UTF8
Codec ID/Info               : UTF-8 Plain Text
Duration                    : 3 min 22 s
Bit rate                    : 52 b/s
Frame rate                  : 0.228 FPS
Count of elements           : 46
Stream size                 : 1.30 KiB (0%)
Title                       : - By RK✪
Language                    : English
Default                     : Yes
Forced                      : No
</pre>
</div><b><span style="color: #ff0000">Password:</span></b><br>
<br>
<div class="bbCodeBlock bbCodeVfcHH HiddenContent">
<div class="attribution type">Hidden Content:</div>
<blockquote>You must reply before you can see the hidden data contained here.</blockquote>
</div><b><span style="color: #00ff80">Link:</span></b><br>
<br>
<div class="bbCodeBlock bbCodeVfcHH HiddenContent">
<div class="attribution type">Hidden Content:</div>
<blockquote>You must reply before you can see the hidden data contained here.</blockquote>
</div>
<div class="messageTextEndMarker">&nbsp;</div>
</blockquote>
</article>]]></description>
                <author><![CDATA[RK94]]></author>
                </item>

                </channel></rss>